<svg version="1.1" xmlns="http://www.w3.org/2000/svg" xmlns:xlink="http://www.w3.org/1999/xlink" width="469.83333" height="335.26511"><g transform="translate(-5.75,-1.08072)"><g data-paper-data="{&quot;isPaintingLayer&quot;:true}" fill="none" fill-rule="nonzero" stroke="none" stroke-width="none" stroke-linecap="none" stroke-linejoin="miter" stroke-miterlimit="10" stroke-dasharray="" stroke-dashoffset="0" font-family="none" font-weight="none" font-size="none" text-anchor="none" style="mix-blend-mode: normal"><path d="M55,282.33333c0,5.79899 -5.26065,10.5 -11.75,10.5c-6.48934,0 -11.75,-4.70101 -11.75,-10.5c0,-5.79899 5.26066,-10.5 11.75,-10.5c6.48935,0 11.75,4.70101 11.75,10.5z" data-paper-data="{&quot;origPos&quot;:null}" fill="none" stroke="#000000" stroke-width="2.5" stroke-linecap="butt"/><path d="M54.5,245.33333c0,5.79899 -5.26065,10.5 -11.75,10.5c-6.48934,0 -11.75,-4.70101 -11.75,-10.5c0,-5.79899 5.26066,-10.5 11.75,-10.5c6.48935,0 11.75,4.70101 11.75,10.5z" data-paper-data="{&quot;origPos&quot;:null}" fill="none" stroke="#000000" stroke-width="2.5" stroke-linecap="butt"/><path d="M55,204.83333c0,5.79899 -5.26065,10.5 -11.75,10.5c-6.48935,0 -11.75,-4.70101 -11.75,-10.5c0,-5.79899 5.26065,-10.5 11.75,-10.5c6.48935,0 11.75,4.70101 11.75,10.5z" data-paper-data="{&quot;origPos&quot;:null}" fill="none" stroke="#000000" stroke-width="2.5" stroke-linecap="butt"/><path d="M304.5,195.16042c0,6.35127 -5.59644,11.5 -12.5,11.5c-6.90356,0 -12.5,-5.14873 -12.5,-11.5c0,-6.35127 5.59644,-11.5 12.5,-11.5c6.90356,0 12.5,5.14873 12.5,11.5z" data-paper-data="{&quot;origPos&quot;:null}" fill="none" stroke="#000000" stroke-width="2.5" stroke-linecap="butt"/><path d="M239,290.66042c0,6.35127 -5.59644,11.5 -12.5,11.5c-6.90356,0 -12.5,-5.14873 -12.5,-11.5c0,-6.35127 5.59644,-11.5 12.5,-11.5c6.90356,0 12.5,5.14873 12.5,11.5z" data-paper-data="{&quot;origPos&quot;:null}" fill="none" stroke="#000000" stroke-width="2.5" stroke-linecap="butt"/><path d="M165.5,211.16042c0,6.35127 -5.59644,11.5 -12.5,11.5c-6.90356,0 -12.5,-5.14873 -12.5,-11.5c0,-6.35127 5.59644,-11.5 12.5,-11.5c6.90356,0 12.5,5.14873 12.5,11.5z" data-paper-data="{&quot;origPos&quot;:null}" fill="none" stroke="#000000" stroke-width="2.5" stroke-linecap="butt"/><path d="M302.66667,213.84583c0,9.66499 -14.40151,17.5 -32.16667,17.5c-17.76516,0 -32.16666,-7.83501 -32.16666,-17.5c0,-9.66499 14.4015,-17.5 32.16666,-17.5c17.76516,0 32.16667,7.83501 32.16667,17.5z" data-paper-data="{&quot;origPos&quot;:null}" fill="#ffffff" stroke="#000000" stroke-width="2.5" stroke-linecap="butt"/><path d="M262.66667,108.03149c0,7.26126 -10.81979,13.14767 -24.16667,13.14767c-13.34688,0 -24.16666,-5.88641 -24.16666,-13.14767c0,-7.26126 10.81978,-13.14767 24.16666,-13.14767c13.34688,0 24.16667,5.88641 24.16667,13.14767z" data-paper-data="{&quot;origPos&quot;:null}" fill="#ffffff" stroke="#000000" stroke-width="2.5" stroke-linecap="butt"/><path d="M423.66667,99.03149c0,7.26126 -10.81979,13.14767 -24.16667,13.14767c-13.34688,0 -24.16667,-5.88641 -24.16667,-13.14767c0,-7.26126 10.81979,-13.14767 24.16667,-13.14767c13.34688,0 24.16667,5.88641 24.16667,13.14767z" data-paper-data="{&quot;origPos&quot;:null}" fill="#ffffff" stroke="#000000" stroke-width="2.5" stroke-linecap="butt"/><path d="M471.33333,143.01249c0,9.66499 -14.4015,17.5 -32.16666,17.5c-17.76516,0 -32.16667,-7.83501 -32.16667,-17.5c0,-9.66499 14.40151,-17.5 32.16667,-17.5c17.76516,0 32.16666,7.83502 32.16666,17.5z" data-paper-data="{&quot;origPos&quot;:null}" fill="#ffffff" stroke="#000000" stroke-width="2.5" stroke-linecap="butt"/><path d="M395.66667,144.34583c0,9.66499 -14.40151,17.5 -32.16667,17.5c-17.76516,0 -32.16667,-7.83501 -32.16667,-17.5c0,-9.66499 14.40151,-17.5 32.16667,-17.5c17.76516,0 32.16667,7.83501 32.16667,17.5z" data-paper-data="{&quot;origPos&quot;:null}" fill="#ffffff" stroke="#000000" stroke-width="2.5" stroke-linecap="butt"/><path d="M474.33333,212.51249c0,10.49341 -15.63592,19 -34.92381,19c-19.28789,0 -34.92381,-8.50659 -34.92381,-19c0,-10.49341 15.63592,-19 34.92381,-19c19.28789,0 34.92381,8.50659 34.92381,19z" data-paper-data="{&quot;origPos&quot;:null}" fill="#ffffff" stroke="#000000" stroke-width="2.5" stroke-linecap="butt"/><path d="M388.66667,214.01249c0,9.66499 -14.40151,17.5 -32.16667,17.5c-17.76516,0 -32.16667,-7.83501 -32.16667,-17.5c0,-9.66499 14.40151,-17.5 32.16667,-17.5c17.76516,0 32.16667,7.83501 32.16667,17.5z" data-paper-data="{&quot;origPos&quot;:null}" fill="#ffffff" stroke="#000000" stroke-width="2.5" stroke-linecap="butt"/><text transform="translate(6,22.66666) scale(0.5,0.5)" font-size="40" xml:space="preserve" data-paper-data="{&quot;origPos&quot;:null}" fill="#000000" fill-rule="nonzero" stroke="none" stroke-width="1" stroke-linecap="butt" stroke-linejoin="miter" stroke-miterlimit="10" stroke-dasharray="" stroke-dashoffset="0" font-family="Sans Serif" font-weight="normal" text-anchor="start" style="mix-blend-mode: normal"><tspan x="0" dy="0">Event Trees</tspan></text><text transform="translate(24,56.66666) scale(0.5,0.5)" font-size="40" xml:space="preserve" data-paper-data="{&quot;origPos&quot;:null}" fill="#000000" fill-rule="nonzero" stroke="none" stroke-width="1" stroke-linecap="butt" stroke-linejoin="miter" stroke-miterlimit="10" stroke-dasharray="" stroke-dashoffset="0" font-family="Sans Serif" font-weight="normal" text-anchor="start" style="mix-blend-mode: normal"><tspan x="0" dy="0">Relationship</tspan><tspan x="0" dy="46.15px"> (Romantic)</tspan></text><text transform="translate(180,57.66666) scale(0.5,0.5)" font-size="40" xml:space="preserve" data-paper-data="{&quot;origPos&quot;:null}" fill="#000000" fill-rule="nonzero" stroke="none" stroke-width="1" stroke-linecap="butt" stroke-linejoin="miter" stroke-miterlimit="10" stroke-dasharray="" stroke-dashoffset="0" font-family="Sans Serif" font-weight="normal" text-anchor="start" style="mix-blend-mode: normal"><tspan x="0" dy="0">Relationship</tspan><tspan x="0" dy="46.15px">   (Friendly)</tspan></text><text transform="translate(371,56.66666) scale(0.5,0.5)" font-size="40" xml:space="preserve" data-paper-data="{&quot;origPos&quot;:null}" fill="#000000" fill-rule="nonzero" stroke="none" stroke-width="1" stroke-linecap="butt" stroke-linejoin="miter" stroke-miterlimit="10" stroke-dasharray="" stroke-dashoffset="0" font-family="Sans Serif" font-weight="normal" text-anchor="start" style="mix-blend-mode: normal"><tspan x="0" dy="0">Conflict</tspan></text><text transform="translate(381,102.82012) scale(0.37114,0.37114)" font-size="40" xml:space="preserve" data-paper-data="{&quot;origPos&quot;:null}" fill="#000000" fill-rule="nonzero" stroke="none" stroke-width="1" stroke-linecap="butt" stroke-linejoin="miter" stroke-miterlimit="10" stroke-dasharray="" stroke-dashoffset="0" font-family="Sans Serif" font-weight="normal" text-anchor="start" style="mix-blend-mode: normal"><tspan x="0" dy="0">Entry</tspan></text><text transform="translate(343.33334,141.49999) scale(0.28332,0.28332)" font-size="40" xml:space="preserve" data-paper-data="{&quot;origPos&quot;:null}" fill="#000000" fill-rule="nonzero" stroke="none" stroke-width="1" stroke-linecap="butt" stroke-linejoin="miter" stroke-miterlimit="10" stroke-dasharray="" stroke-dashoffset="0" font-family="Sans Serif" font-weight="normal" text-anchor="start" style="mix-blend-mode: normal"><tspan x="0" dy="0">Random</tspan><tspan x="0" dy="46.15px">Fight</tspan></text><text transform="translate(417,140.97396) scale(0.23465,0.23465)" font-size="40" xml:space="preserve" data-paper-data="{&quot;origPos&quot;:null}" fill="#000000" fill-rule="nonzero" stroke="none" stroke-width="1" stroke-linecap="butt" stroke-linejoin="miter" stroke-miterlimit="10" stroke-dasharray="" stroke-dashoffset="0" font-family="Sans Serif" font-weight="normal" text-anchor="start" style="mix-blend-mode: normal"><tspan x="0" dy="0">Fight over</tspan><tspan x="0" dy="46.15px">Memory</tspan></text><text transform="translate(331,217.11508) scale(0.28779,0.28779)" font-size="40" xml:space="preserve" data-paper-data="{&quot;origPos&quot;:null}" fill="#000000" fill-rule="nonzero" stroke="none" stroke-width="1" stroke-linecap="butt" stroke-linejoin="miter" stroke-miterlimit="10" stroke-dasharray="" stroke-dashoffset="0" font-family="Sans Serif" font-weight="normal" text-anchor="start" style="mix-blend-mode: normal"><tspan x="0" dy="0">Make Up</tspan></text><text transform="translate(409,207.41666) scale(0.26165,0.26165)" font-size="40" xml:space="preserve" data-paper-data="{&quot;origPos&quot;:null}" fill="#000000" fill-rule="nonzero" stroke="none" stroke-width="1" stroke-linecap="butt" stroke-linejoin="miter" stroke-miterlimit="10" stroke-dasharray="" stroke-dashoffset="0" font-family="Sans Serif" font-weight="normal" text-anchor="start" style="mix-blend-mode: normal"><tspan x="0" dy="0">       End </tspan><tspan x="0" dy="46.15px">Relationship</tspan></text><path d="M385,110.17916l-9.66667,16.66667" fill="none" stroke="#000000" stroke-width="2.5" stroke-linecap="round"/><path d="M413.66667,109.84583l9,16.33333" fill="none" stroke="#000000" stroke-width="2.5" stroke-linecap="round"/><path d="M421.66667,158.84583l-53,38" fill="none" stroke="#000000" stroke-width="2.5" stroke-linecap="round"/><path d="M443.66667,160.84583l-0.33333,31" fill="none" stroke="#000000" stroke-width="2.5" stroke-linecap="round"/><path d="M387,156.84583l30,39.33333" fill="none" stroke="#000000" stroke-width="2.5" stroke-linecap="round"/><path d="M349.66667,160.84583l-1.66667,35" fill="none" stroke="#000000" stroke-width="2.5" stroke-linecap="round"/><text transform="translate(221.5,113.02979) scale(0.3245,0.3245)" font-size="40" xml:space="preserve" data-paper-data="{&quot;origPos&quot;:null}" fill="#000000" fill-rule="nonzero" stroke="none" stroke-width="1" stroke-linecap="butt" stroke-linejoin="miter" stroke-miterlimit="10" stroke-dasharray="" stroke-dashoffset="0" font-family="Sans Serif" font-weight="normal" text-anchor="start" style="mix-blend-mode: normal"><tspan x="0" dy="0">Meet</tspan></text><text transform="translate(248.21848,212.08738) scale(0.24929,0.24929)" font-size="40" xml:space="preserve" data-paper-data="{&quot;origPos&quot;:null}" fill="#000000" fill-rule="nonzero" stroke="none" stroke-width="1" stroke-linecap="butt" stroke-linejoin="miter" stroke-miterlimit="10" stroke-dasharray="" stroke-dashoffset="0" font-family="Sans Serif" font-weight="normal" text-anchor="start" style="mix-blend-mode: normal"><tspan x="0" dy="0">Shoot the</tspan><tspan x="0" dy="46.15px">     Shit</tspan></text><path d="M104.16667,108.53149c0,7.26126 -10.81978,13.14767 -24.16666,13.14767c-13.34688,0 -24.16666,-5.88641 -24.16666,-13.14767c0,-7.26126 10.81979,-13.14767 24.16667,-13.14767c13.34688,0 24.16666,5.88641 24.16666,13.14767z" data-paper-data="{&quot;origPos&quot;:null}" fill="#ffffff" stroke="#000000" stroke-width="2.5" stroke-linecap="butt"/><text transform="translate(63.5,113.02979) scale(0.3245,0.3245)" font-size="40" xml:space="preserve" data-paper-data="{&quot;origPos&quot;:null}" fill="#000000" fill-rule="nonzero" stroke="none" stroke-width="1" stroke-linecap="butt" stroke-linejoin="miter" stroke-miterlimit="10" stroke-dasharray="" stroke-dashoffset="0" font-family="Sans Serif" font-weight="normal" text-anchor="start" style="mix-blend-mode: normal"><tspan x="0" dy="0">Meet</tspan></text><path d="M272.16667,156.34583c0,9.66499 -14.40151,17.5 -32.16667,17.5c-17.76516,0 -32.16666,-7.83501 -32.16666,-17.5c0,-9.66499 14.4015,-17.5 32.16666,-17.5c17.76516,0 32.16667,7.83501 32.16667,17.5z" data-paper-data="{&quot;origPos&quot;:null}" fill="#ffffff" stroke="#000000" stroke-width="2.5" stroke-linecap="butt"/><text transform="translate(211.11366,159.61064) scale(0.24046,0.24046)" font-size="40" xml:space="preserve" data-paper-data="{&quot;origPos&quot;:null}" fill="#000000" fill-rule="nonzero" stroke="none" stroke-width="1" stroke-linecap="butt" stroke-linejoin="miter" stroke-miterlimit="10" stroke-dasharray="" stroke-dashoffset="0" font-family="Sans Serif" font-weight="normal" text-anchor="start" style="mix-blend-mode: normal"><tspan x="0" dy="0">Introduction</tspan></text><path d="M109.16667,155.34583c0,9.66499 -14.4015,17.5 -32.16666,17.5c-17.76516,0 -32.16666,-7.83501 -32.16666,-17.5c0,-9.66499 14.40151,-17.5 32.16667,-17.5c17.76516,0 32.16666,7.83501 32.16666,17.5z" data-paper-data="{&quot;origPos&quot;:null}" fill="#ffffff" stroke="#000000" stroke-width="2.5" stroke-linecap="butt"/><text transform="translate(48.11366,158.61064) scale(0.24046,0.24046)" font-size="40" xml:space="preserve" data-paper-data="{&quot;origPos&quot;:null}" fill="#000000" fill-rule="nonzero" stroke="none" stroke-width="1" stroke-linecap="butt" stroke-linejoin="miter" stroke-miterlimit="10" stroke-dasharray="" stroke-dashoffset="0" font-family="Sans Serif" font-weight="normal" text-anchor="start" style="mix-blend-mode: normal"><tspan x="0" dy="0">Introduction</tspan></text><path d="M221.16667,215.34583c0,9.66499 -14.4015,17.5 -32.16666,17.5c-17.76516,0 -32.16666,-7.83501 -32.16666,-17.5c0,-9.66499 14.4015,-17.5 32.16666,-17.5c17.76516,0 32.16666,7.83501 32.16666,17.5z" data-paper-data="{&quot;origPos&quot;:null}" fill="#ffffff" stroke="#000000" stroke-width="2.5" stroke-linecap="butt"/><text transform="translate(160.59599,218.02046) scale(0.21995,0.21995)" font-size="40" xml:space="preserve" data-paper-data="{&quot;origPos&quot;:null}" fill="#000000" fill-rule="nonzero" stroke="none" stroke-width="1" stroke-linecap="butt" stroke-linejoin="miter" stroke-miterlimit="10" stroke-dasharray="" stroke-dashoffset="0" font-family="Sans Serif" font-weight="normal" text-anchor="start" style="mix-blend-mode: normal"><tspan x="0" dy="0">Discuss News</tspan></text><path d="M299.16667,283.89375c0,10.1908 -15.18501,18.45207 -33.91667,18.45207c-18.73166,0 -33.91666,-8.26127 -33.91666,-18.45207c0,-10.1908 15.185,-18.45207 33.91666,-18.45207c18.73166,0 33.91667,8.26127 33.91667,18.45207z" data-paper-data="{&quot;origPos&quot;:null}" fill="#ffffff" stroke="#000000" stroke-width="2.5" stroke-linecap="butt"/><text transform="translate(236.19198,286.61371) scale(0.27755,0.27755)" font-size="40" xml:space="preserve" data-paper-data="{&quot;origPos&quot;:null}" fill="#000000" fill-rule="nonzero" stroke="none" stroke-width="1" stroke-linecap="butt" stroke-linejoin="miter" stroke-miterlimit="10" stroke-dasharray="" stroke-dashoffset="0" font-family="Sans Serif" font-weight="normal" text-anchor="start" style="mix-blend-mode: normal"><tspan x="0" dy="0">Tell Secrets</tspan></text><path d="M267.5,232.66042l-1.5,31" fill="none" stroke="#000000" stroke-width="2.5" stroke-linecap="round"/><path d="M198,232.66042l43,37" fill="none" stroke="#000000" stroke-width="2.5" stroke-linecap="round"/><path d="M251.5,172.16042l9,24.5" data-paper-data="{&quot;origPos&quot;:null}" fill="none" stroke="#000000" stroke-width="2.5" stroke-linecap="round"/><path d="M198.5,198.16042l23.5,-25.5" fill="none" stroke="#000000" stroke-width="2.5" stroke-linecap="round"/><path d="M227.5,274.66042l2.5,5l-3.5,3" fill="none" stroke="#000000" stroke-width="2.5" stroke-linecap="round"/><path d="M299.5,198.16042v6l6,0.5" fill="none" stroke="#000000" stroke-width="2.5" stroke-linecap="round"/><path d="M162.5,197.16042v6l-6,2" fill="none" stroke="#000000" stroke-width="2.5" stroke-linecap="round"/><path d="M99.38095,207.59583c0,7.59392 -11.31547,13.75 -25.2738,13.75c-13.95834,0 -25.27381,-6.15608 -25.27381,-13.75c0,-7.59392 11.31547,-13.75 25.27381,-13.75c13.95834,0 25.2738,6.15608 25.2738,13.75z" data-paper-data="{&quot;origPos&quot;:null}" fill="#ffffff" stroke="#000000" stroke-width="2.5" stroke-linecap="butt"/><text transform="translate(59.54298,213.15299) scale(0.38951,0.38951)" font-size="40" xml:space="preserve" data-paper-data="{&quot;origPos&quot;:null}" fill="#000000" fill-rule="nonzero" stroke="none" stroke-width="1" stroke-linecap="butt" stroke-linejoin="miter" stroke-miterlimit="10" stroke-dasharray="" stroke-dashoffset="0" font-family="Sans Serif" font-weight="normal" text-anchor="start" style="mix-blend-mode: normal"><tspan x="0" dy="0">Flirt</tspan></text><path d="M99.63095,247.34583c0,7.59392 -11.31547,13.75 -25.2738,13.75c-13.95834,0 -25.27381,-6.15608 -25.27381,-13.75c0,-7.59392 11.31547,-13.75 25.27381,-13.75c13.95834,0 25.2738,6.15608 25.2738,13.75z" data-paper-data="{&quot;origPos&quot;:null}" fill="#ffffff" stroke="#000000" stroke-width="2.5" stroke-linecap="butt"/><text transform="translate(60.38897,250.90442) scale(0.3245,0.3245)" font-size="40" xml:space="preserve" data-paper-data="{&quot;origPos&quot;:null}" fill="#000000" fill-rule="nonzero" stroke="none" stroke-width="1" stroke-linecap="butt" stroke-linejoin="miter" stroke-miterlimit="10" stroke-dasharray="" stroke-dashoffset="0" font-family="Sans Serif" font-weight="normal" text-anchor="start" style="mix-blend-mode: normal"><tspan x="0" dy="0">Date</tspan></text><path d="M101.63095,283.34583c0,7.59392 -11.31547,13.75 -25.2738,13.75c-13.95834,0 -25.27381,-6.15608 -25.27381,-13.75c0,-7.59392 11.31547,-13.75 25.27381,-13.75c13.95834,0 25.2738,6.15608 25.2738,13.75z" data-paper-data="{&quot;origPos&quot;:null}" fill="#ffffff" stroke="#000000" stroke-width="2.5" stroke-linecap="butt"/><text transform="translate(56.76146,287.43235) scale(0.3245,0.3245)" font-size="40" xml:space="preserve" data-paper-data="{&quot;origPos&quot;:null}" fill="#000000" fill-rule="nonzero" stroke="none" stroke-width="1" stroke-linecap="butt" stroke-linejoin="miter" stroke-miterlimit="10" stroke-dasharray="" stroke-dashoffset="0" font-family="Sans Serif" font-weight="normal" text-anchor="start" style="mix-blend-mode: normal"><tspan x="0" dy="0">Diddle</tspan></text><path d="M102.13095,321.34583c0,7.59392 -11.31547,13.75 -25.2738,13.75c-13.95834,0 -25.27381,-6.15608 -25.27381,-13.75c0,-7.59392 11.31547,-13.75 25.27381,-13.75c13.95834,0 25.2738,6.15608 25.2738,13.75z" data-paper-data="{&quot;origPos&quot;:null}" fill="#ffffff" stroke="#000000" stroke-width="2.5" stroke-linecap="butt"/><text transform="translate(56.88396,324.10129) scale(0.22747,0.22747)" font-size="40" xml:space="preserve" data-paper-data="{&quot;origPos&quot;:null}" fill="#000000" fill-rule="nonzero" stroke="none" stroke-width="1" stroke-linecap="butt" stroke-linejoin="miter" stroke-miterlimit="10" stroke-dasharray="" stroke-dashoffset="0" font-family="Sans Serif" font-weight="normal" text-anchor="start" style="mix-blend-mode: normal"><tspan x="0" dy="0">Marriage</tspan></text><path d="M77.5,121.83333l-0.5,15" fill="none" stroke="#000000" stroke-width="2.5" stroke-linecap="round"/><path d="M77,172.83333l-1,19" fill="none" stroke="#000000" stroke-width="2.5" stroke-linecap="round"/><path d="M73.5,221.33333l0.5,11" fill="none" stroke="#000000" stroke-width="2.5" stroke-linecap="round"/><path d="M75.5,260.83333l0.5,7.5" fill="none" stroke="#000000" stroke-width="2.5" stroke-linecap="round"/><path d="M77,296.83333l0.5,10" fill="none" stroke="#000000" stroke-width="2.5" stroke-linecap="round"/><path d="M53,190.91666l-0.25,7.5l-7.75,1.5" fill="none" stroke="#000000" stroke-width="2.5" stroke-linecap="round"/><path d="M50.75,229.91666l0.75,9l-8.25,1.75" fill="none" stroke="#000000" stroke-width="2.5" stroke-linecap="round"/><path d="M51.75,269.41666l1,6.75l-6.75,1.75" fill="none" stroke="#000000" stroke-width="2.5" stroke-linecap="round"/></g></g></svg>